<svg width="26" height="37" fill="none" xmlns="http://www.w3.org/2000/svg"><path d="M17.518 8.336c.177-.186.317-.407.413-.65a2.088 2.088 0 000-1.531 2.01 2.01 0 00-.413-.65L13.554 1.34a1.858 1.858 0 00-1.346-.587c-.505 0-.989.211-1.346.587a2.055 2.055 0 00-.558 1.415c0 .53.201 1.04.558 1.415l.786.823A12.643 12.643 0 005.216 7.64a13.597 13.597 0 00-4.235 5.737 14.314 14.314 0 00-.841 7.208 14.019 14.019 0 002.788 6.643c.32.411.78.672 1.283.726a1.84 1.84 0 001.395-.44c.391-.336.64-.822.69-1.35.051-.527-.1-1.055-.419-1.466a9.907 9.907 0 01-1.949-4.544 10.133 10.133 0 01.463-4.96 9.672 9.672 0 012.751-4.059 8.998 8.998 0 014.31-2.078l-.59.617a2.055 2.055 0 00-.558 1.415c0 .53.201 1.04.558 1.415.357.375.841.586 1.346.586.505 0 .99-.211 1.346-.586l3.964-4.167zm2.223.766a2 2 0 00-.43.639 2.086 2.086 0 00.36 2.195 9.834 9.834 0 012.306 4.553c.362 1.71.276 3.49-.25 5.152a9.71 9.71 0 01-2.734 4.284 9.01 9.01 0 01-4.44 2.195l.586-.616c.357-.376.558-.885.558-1.415 0-.531-.2-1.04-.557-1.415a1.857 1.857 0 00-1.347-.587c-.504 0-.989.211-1.346.587L8.484 28.84a2.01 2.01 0 00-.413.649 2.09 2.09 0 000 1.532c.096.242.236.463.413.649l3.963 4.167c.357.375.842.586 1.347.586.504 0 .989-.211 1.345-.586.357-.376.558-.885.558-1.415 0-.531-.2-1.04-.557-1.416l-.787-.826a12.657 12.657 0 006.625-2.803c1.916-1.565 3.377-3.664 4.218-6.058a14.331 14.331 0 00.537-7.486A13.915 13.915 0 0022.43 9.18a1.862 1.862 0 00-1.33-.622 1.849 1.849 0 00-1.36.545z" fill="#fff"/></svg>