<svg width="30" height="30" fill="none" xmlns="http://www.w3.org/2000/svg"><path d="M29.191 13.606c.337-.262.586-.629.714-1.047a2.201 2.201 0 00-.002-1.287 2.105 2.105 0 00-.716-1.046 1.95 1.95 0 00-1.163-.413l-8.146-.323a.203.203 0 01-.11-.043.218.218 0 01-.07-.099l-2.816-7.966A2.096 2.096 0 0016.148.38 1.946 1.946 0 0014.996 0c-.412 0-.814.133-1.152.38a2.095 2.095 0 00-.736 1.002l-2.805 7.995a.218.218 0 01-.07.099.203.203 0 01-.111.043l-8.146.322a1.95 1.95 0 00-1.163.414A2.105 2.105 0 00.097 11.3c-.129.418-.13.868-.002 1.287.128.419.378.785.714 1.048l6.39 5.263a.218.218 0 01.068.102c.013.04.014.084.004.125l-2.2 8.166c-.113.415-.102.858.032 1.267a2.1 2.1 0 00.72 1.018c.335.254.736.394 1.148.4.413.007.818-.12 1.16-.362l6.751-4.742a.193.193 0 01.227 0l6.751 4.742c.337.251.74.386 1.154.386a1.93 1.93 0 001.154-.386c.335-.252.586-.605.72-1.013.135-.408.146-.849.031-1.263l-2.217-8.194a.218.218 0 01.002-.125.209.209 0 01.07-.102l6.417-5.31z" fill="#fff"/></svg>